<svg width="148" height="86" viewBox="0 0 148 86" fill="none" xmlns="http://www.w3.org/2000/svg">
<path d="M88.1497 24.4686C89.5672 24.736 92.5031 26.9848 94.117 27.5788C94.7156 27.7992 96.4529 28.7759 96.9084 29.1966C96.8177 33.0016 96.7706 36.8075 96.7672 40.6136C94.3215 39.2293 91.8472 37.9082 89.4513 36.4486C88.689 36.0077 88.117 35.6581 88.1627 34.6549C88.3161 31.3328 87.9772 27.7568 88.1497 24.4686Z" fill="#FEBB0B"/>
<path d="M58.9848 39.5538C59.0761 39.528 59.0389 39.5405 59.1559 39.5764C59.3427 40.1188 59.0461 45.3549 59.0241 46.3175C59.0007 47.3458 59.0122 49.6826 58.9465 50.7006C56.1435 51.5605 53.7391 53.4691 51.3247 55.0374C51.1458 55.154 50.8477 55.2215 50.6338 55.1935C50.497 55.0005 50.5278 54.7339 50.5222 54.481C50.4626 53.6082 50.4708 52.4503 50.4568 51.5537C50.4297 49.4439 50.4157 47.3342 50.4148 45.2239C50.1079 45.137 49.7782 45.0153 49.4737 44.9101C51.0277 43.4745 52.8774 42.7249 54.7037 41.7151C56.1723 40.903 57.3824 40.0857 58.9848 39.5538Z" fill="#F14C14"/>
<path d="M39.7393 40.1222C41.4264 40.4627 47.422 43.0305 48.0334 44.5978C47.9707 48.2643 48.0963 51.9853 48.0353 55.604C46.56 54.8922 45.1402 53.8918 43.7251 53.0456C42.5508 52.3433 40.4413 51.6894 39.5837 50.6904C39.4349 49.7372 39.68 47.8136 39.6834 46.7567C39.6881 45.2461 39.6663 43.735 39.6602 42.2258C39.6617 41.4789 39.6879 40.8678 39.7393 40.1222Z" fill="#FEBB0B"/>
<path d="M59.0615 24.1489C59.1947 24.4307 59.2595 33.7078 59.1137 34.5768C57.9367 35.4494 55.9838 36.1994 54.693 37.0403C53.4097 37.8763 52.0655 38.8291 50.7237 39.5325C50.5192 38.7605 50.6076 35.5782 50.599 34.5435C50.5834 32.6816 50.5079 30.6007 50.5497 28.7534C51.523 28.2385 52.4825 27.783 53.4474 27.2352C54.8248 26.4533 57.652 24.5435 59.0615 24.1489Z" fill="#F14C14"/>
<path d="M69.9953 32.8157C70.3193 32.784 70.5961 32.7262 70.8658 32.8924C71.1569 33.4939 70.9866 37.2973 71.0078 38.2909C71.0393 39.7711 71.1256 41.7539 71.0449 43.2129C70.2967 43.9478 68.2112 44.9648 67.2043 45.5422C66.1274 46.1597 64.787 46.9371 63.6916 47.4976C63.413 47.5767 63.1097 47.6496 62.8275 47.7226C62.6474 46.7025 62.683 44.599 62.6815 43.5191L62.6773 36.9993C64.3884 36.4524 66.2369 35.1505 67.7423 34.1843C68.5456 33.6687 69.0597 33.1506 69.9953 32.8157Z" fill="#066FBF"/>
<path d="M27.5566 33.5234C29.1349 33.7543 30.5811 34.5574 32.0057 35.2633C33.0007 35.7563 35.1137 36.5374 35.7356 37.3784C35.7583 39.5683 35.7532 41.7583 35.7201 43.9481C35.6812 45.68 35.6917 46.8023 35.4308 48.5214C35.0466 48.4382 34.4177 48.3059 34.0921 48.0877C32.9503 47.3247 32.1293 46.3646 30.9702 45.5586C29.8741 44.797 28.4697 44.4695 27.5577 43.6436C27.3166 42.5294 27.513 39.7816 27.5353 38.5146C27.5549 37.4035 27.5485 36.1541 27.5653 35.0451C27.5609 34.5595 27.5421 34.0032 27.5566 33.5234Z" fill="#FEBB0B"/>
<path d="M118.791 33.3673C119.22 33.8369 119.172 42.8432 118.995 43.9767C118.429 44.2964 117.086 44.8508 116.43 45.169C115.233 45.7501 112.34 48.0705 111.291 48.0869C111.086 47.9641 111.14 47.9696 111.017 47.7043C110.615 46.1401 110.747 43.9675 110.901 42.3566C111.081 40.4678 111.115 39.5338 110.436 37.7349C110.994 37.3051 112.17 36.6985 112.82 36.3181C114.161 35.534 117.334 33.5741 118.791 33.3673Z" fill="#DD0252"/>
<path d="M106.33 24.3674C106.65 24.345 107.115 24.3606 107.447 24.3625C107.278 25.4471 106.915 26.5958 106.861 27.6867C106.734 30.242 106.922 32.7846 106.677 35.3388C105.995 35.8297 105.251 36.2018 104.569 36.6695C102.919 37.8014 101.358 38.7317 99.56 39.618C99.2757 39.7509 98.9797 39.8563 98.6859 39.9675C98.9157 36.4424 98.8536 32.4472 98.9497 28.8938C99.9486 28.221 100.971 27.8994 101.967 27.2893C103.508 26.3458 104.589 25.0127 106.33 24.3674Z" fill="url(#paint0_linear_0_1)"/>
<path d="M28.1487 17.9004C29.5389 18.9355 30.7486 19.2691 32.2898 19.9462C32.984 20.2511 33.8366 20.8236 34.461 21.2562C35.0795 21.7008 35.5533 22.1036 35.8978 22.7956C35.8797 23.8454 35.7306 25.1989 35.7614 26.2079C35.8268 28.354 35.8949 30.1814 35.8064 32.325C35.1578 32.2062 34.5162 32.0412 33.9076 31.8213C32.8612 31.4432 28.0308 28.8369 27.4642 28.2821C27.3445 26.7566 27.4867 25.1309 27.5364 23.5943C27.5769 22.3431 27.4737 20.7403 27.62 19.531C27.6753 18.8157 27.6928 18.4956 28.1487 17.9004Z" fill="#F14C14"/>
<path d="M75.6888 18.1152C76.6113 18.5354 77.7649 19.1995 78.6629 19.6779C79.6856 20.2225 83.7063 21.8988 84.264 22.6443C84.2381 22.8595 84.2333 22.8618 84.1508 23.0655C84.0997 25.3257 84.007 27.5735 84.0417 29.8372C84.0615 31.1028 84.0711 32.4186 83.9333 33.6761C81.5081 31.4865 78.7447 30.6849 76.1551 28.8105C75.6206 28.4235 75.6915 27.3332 75.7017 26.6996C75.7419 24.1472 75.8572 21.5988 75.8169 19.0418C75.7788 18.7427 75.7453 18.4086 75.6888 18.1152Z" fill="#F14C14"/>
<path d="M75.789 34.0023L76.312 34.0894C77.7322 34.3203 82.089 36.994 83.5399 37.8302C83.8038 37.9822 84.0786 38.2975 84.2613 38.55C84.219 39.1474 84.1577 39.7373 84.1038 40.3335C83.9729 41.8018 84.0534 43.2947 84.037 44.7686C84.1495 45.8304 84.1522 48.0042 83.9511 49.0482C83.197 48.2422 80.7445 47.0932 79.7217 46.2716C79.3474 46.1734 76.6542 44.5908 76.2424 44.2119C76.0099 44.009 75.8708 43.5246 75.847 43.2142C75.6124 40.1744 75.8088 37.0471 75.789 34.0023Z" fill="#22B8EC"/>
<path d="M84.037 44.7687C84.1495 45.8305 84.1522 48.0043 83.9511 49.0483C83.197 48.2423 80.7445 47.0933 79.7217 46.2717C80.9292 46.5021 82.2813 48.2034 83.5345 48.0855C83.6668 48.0725 83.6756 48.1161 83.8113 48.2096L83.8706 48.1673C84.1011 47.3565 83.9443 45.7848 84.0288 44.8489L84.037 44.7687Z" fill="#1D9CDE"/>
<path d="M39.7256 34.6665C39.5914 31.7677 39.8635 28.6975 39.639 25.7567C39.4794 23.6652 41.0887 24.5506 42.112 25.3941C43.8467 26.6164 45.8954 27.4791 47.736 28.5381C47.909 28.6377 47.958 28.6554 48.0403 28.8308C48.0246 29.0128 48.0109 29.1841 47.9852 29.3651C47.7444 32.5863 47.7899 36.1182 47.7351 39.3497C46.5336 38.8094 45.5046 38.1866 44.3543 37.5602C42.8744 36.7543 40.9261 35.8814 39.7256 34.6665Z" fill="#F14C14"/>
<path d="M96.2416 55.3112C94.8016 54.9116 93.7011 54.0293 92.4316 53.2792C91.2527 52.5824 89.7902 52.0839 88.7293 51.2329C88.3372 50.6595 88.3181 49.0243 88.342 48.4229C88.4416 45.9791 88.1893 43.3832 88.3045 40.9721L88.4272 40.8905C89.3484 40.7738 91.2731 41.7862 92.0695 42.2976C93.125 42.6988 95.8454 44.1717 96.7911 44.7841L96.6616 45.3764C96.3977 48.5559 96.3834 52.0764 96.2416 55.3112Z" fill="#22B8EC"/>
<path d="M119.081 17.4553C119.059 17.4162 119.265 27.2044 119.173 27.8961C118.181 28.7351 115.35 30.0001 114.155 30.667C113.349 31.1172 111.793 32.0984 111.019 32.3284C110.499 31.4554 110.715 28.5142 110.738 27.3674C110.772 25.6911 110.768 24.0143 110.728 22.3382C111.748 21.4908 114.089 20.4125 115.328 19.6764C116.366 19.06 118.067 17.8915 119.081 17.4553Z" fill="#F14C14"/>
<path d="M106.442 39.9493C106.549 39.9381 106.638 39.9323 106.742 39.9542C106.854 39.9776 106.913 40.0325 106.965 40.1341C107.114 40.4238 107.136 47.9545 107.101 48.6821C107.074 49.214 107.03 49.7649 106.848 50.2695C106.698 50.6854 106.442 50.9582 106.101 51.2262C105.208 51.9271 104.05 52.4201 103.058 52.9786C102.013 53.567 101.033 54.2285 99.9439 54.7378C99.7652 54.821 99.513 54.986 99.3248 54.9178V54.7399C99.4134 53.7546 99.3084 51.818 99.275 50.7789L99.1502 45.6505L98.2373 45.1445C98.9832 44.484 100.048 43.9607 100.877 43.3982C102.139 42.5418 103.384 41.7212 104.7 40.9469C105.313 40.5861 105.778 40.2317 106.442 39.9493Z" fill="#066FBF"/>
<path d="M70.7333 18.2698L70.8672 18.2996C70.8768 18.3169 70.8886 18.3333 70.8963 18.3515C71.0186 18.643 71.0327 25.8887 70.994 26.6482C70.979 26.9421 70.9516 27.286 70.8302 27.5578C70.7012 27.8468 68.2841 29.091 67.8013 29.4C66.1132 30.4807 64.643 31.9376 62.7855 32.713C62.2691 31.6685 63.4223 24.4334 62.7176 22.0858C64.6662 21.6093 66.1583 20.8214 67.8984 19.821C68.8353 19.2824 69.718 18.6507 70.7333 18.2698Z" fill="#066FBF"/>
<path d="M108.753 10.4467C110.04 10.3807 111.236 11.4841 112.385 12.0029C114.04 12.7499 115.586 13.1131 116.991 14.3367C115.72 15.761 112.726 16.575 111.026 17.5614C110.578 17.8212 109.712 18.2003 109.217 18.3712C108.642 18.4911 108.07 18.2479 107.544 18.0379C106.59 17.6572 101.382 15.4891 101.132 14.762C101.097 14.659 101.142 14.5665 101.198 14.4784C101.382 14.1948 101.74 13.9392 102.027 13.7662C102.769 13.3177 103.624 13.0231 104.4 12.6266C105.825 11.8983 107.209 10.8965 108.753 10.4467Z" fill="#FEBB0B"/>
<path d="M44.3971 19.6015C45.07 19.2082 45.8353 18.8492 46.4791 18.4447C47.6429 17.7136 49.0641 16.4518 50.5859 16.8453C51.6958 17.1323 53.1949 18.5832 54.2819 19.1408C55.3624 19.6952 56.6458 20.2327 57.7862 20.6452C57.1224 21.1121 55.479 22.0807 54.8667 22.4037C53.7234 23.0067 50.5497 25.231 49.4431 24.9393C48.2878 24.6346 44.4472 22.6596 43.5291 21.9469L41.6392 20.9327C42.4925 20.2834 43.4051 19.9846 44.3971 19.6015Z" fill="#35E1F7"/>
<path d="M41.6392 20.9327C42.4925 20.2833 43.4051 19.9846 44.3971 19.6014C44.0689 20.0832 43.4262 19.9657 43.1083 20.2976C43.2049 20.4396 43.2797 20.5109 43.2698 20.6925C43.1514 20.9406 42.8878 21.2917 42.9289 21.4619C43.2235 21.5991 43.3461 21.6506 43.6142 21.85L43.633 21.9172L43.5291 21.9469L41.6392 20.9327Z" fill="#7DECF7"/>
<path d="M84.9568 10.7145C85.8949 10.6374 87.6186 11.7123 88.5309 12.1431C90.2341 12.9476 92.1772 13.6841 93.5982 14.9303C92.2782 15.8267 90.8504 16.1452 89.392 16.8981C88.6604 17.276 86.6504 18.5628 86.0865 18.6753C84.8845 18.5352 80.2849 16.1112 79.1095 15.403C78.5933 15.092 77.8911 14.5392 77.4261 14.136C78.7236 13.4655 79.7538 13.2628 81.0281 12.7156C82.299 12.1697 83.6913 11.3527 84.9568 10.7145Z" fill="#FEBB0B"/>
<path d="M96.6118 3.89437C97.5875 3.83532 98.6423 4.73587 99.485 5.22177C101.236 6.24902 102.998 7.25738 104.77 8.24657C103.535 8.97809 101.629 9.59266 100.262 10.3236C99.2157 10.8829 98.2216 11.5324 97.2098 12.0576C97.0311 12.1371 96.8293 12.2072 96.6452 12.2764C95.8298 11.903 94.5152 11.0394 93.6261 10.5766C92.3423 9.90769 90.3759 9.29741 89.3613 8.38274C90.6841 6.80795 93.3663 5.84467 95.0879 4.70525C95.5045 4.42971 96.1584 4.09559 96.6118 3.89437Z" fill="#FE9609"/>
<path d="M37.2708 10.6509C38.7355 10.6615 44.4011 13.4356 45.4513 14.5266C45.2942 14.6733 45.1307 14.813 44.9612 14.9453C43.8004 15.842 42.1632 16.6556 40.8983 17.4362C40.2863 17.8138 39.5054 18.2757 38.8552 18.5981C38.7436 18.6534 38.4837 18.6209 38.3534 18.6043C36.1782 17.6756 31.6549 15.7456 29.9917 14.2075C30.9033 13.7686 32.0976 13.5338 33.251 12.9592C34.4478 12.3631 36.2371 11.0012 37.2708 10.6509Z" fill="#35E1F7"/>
<path d="M61.5779 10.3692C61.6557 10.3619 61.8923 10.3479 61.9525 10.3778C63.8089 11.3 65.2635 12.8572 67.3586 13.3544C67.7221 13.4406 69.0185 13.8518 69.1955 14.1678C68.6476 14.8065 62.619 17.8733 61.6125 18.2376C60.388 18.701 59.9017 18.1318 58.8395 17.541C58.3038 17.2429 57.818 16.9168 57.2564 16.6519C56.2434 16.1741 54.9701 16.0374 54.1125 15.2923C53.9613 15.154 53.9662 14.8232 53.9947 14.6324C54.1645 14.3336 54.495 14.0691 54.7834 13.8845C55.84 13.208 57.0308 12.6995 58.1444 12.1204C59.2825 11.5285 60.3946 10.8595 61.5779 10.3692Z" fill="#35E1F7"/>
<path d="M96.6936 17.0624C98.4439 16.9511 100.766 18.8617 102.353 19.6059C103.299 20.0496 104.326 20.4083 105.212 20.9205C104.626 21.3129 103.695 21.7112 103.033 22.0699C101.387 22.9627 100.074 24.1667 98.1943 24.4785C95.5543 24.6058 94.7538 23.6562 92.5631 22.3704C91.5275 21.7624 90.517 21.51 89.6613 20.5818C90.7631 19.8095 92.2093 19.4443 93.4679 18.7725C94.3659 18.2931 95.8379 17.2198 96.6936 17.0624Z" fill="#FED90A"/>
<path d="M49.2812 4.16924C49.6402 4.14626 49.8543 4.14387 50.1737 4.3185C51.2197 4.89039 52.2682 5.49276 53.2947 6.09867C54.3029 6.69374 55.4291 7.20631 56.3995 7.8457C55.12 9.46379 53.6255 10.2259 51.805 11.0995C50.7752 11.5936 50.0827 11.9503 48.9267 11.8362C47.2725 11.2749 43.1013 9.01485 41.6725 8.02367C43.4188 7.04102 45.0477 6.26696 46.856 5.42143C47.6171 5.06556 48.4981 4.41819 49.2812 4.16924Z" fill="#35E1F7"/>
<path d="M0 69.9286H1.60714V71.5357H0V69.9286ZM1.60714 69.9286H3.21429V71.5357H1.60714V69.9286ZM3.21429 69.9286H4.82143V71.5357H3.21429V69.9286ZM4.82143 69.9286H6.42857V71.5357H4.82143V69.9286ZM6.42857 69.9286H8.03571V71.5357H6.42857V69.9286ZM8.03571 69.9286H9.64286V71.5357H8.03571V69.9286ZM8.03571 71.5357H9.64286V73.1429H8.03571V71.5357ZM6.42857 71.5357H8.03571V73.1429H6.42857V71.5357ZM4.82143 71.5357H6.42857V73.1429H4.82143V71.5357ZM3.21429 71.5357H4.82143V73.1429H3.21429V71.5357ZM1.60714 71.5357H3.21429V73.1429H1.60714V71.5357ZM0 71.5357H1.60714V73.1429H0V71.5357ZM9.64286 71.5357H11.25V73.1429H9.64286V71.5357ZM9.64286 73.1429H11.25V74.75H9.64286V73.1429ZM9.64286 74.75H11.25V76.3571H9.64286V74.75ZM8.03571 74.75H9.64286V76.3571H8.03571V74.75ZM8.03571 73.1429H9.64286V74.75H8.03571V73.1429ZM8.03571 76.3571H9.64286V77.9643H8.03571V76.3571ZM6.42857 76.3571H8.03571V77.9643H6.42857V76.3571ZM4.82143 76.3571H6.42857V77.9643H4.82143V76.3571ZM3.21429 76.3571H4.82143V77.9643H3.21429V76.3571ZM1.60714 76.3571H3.21429V77.9643H1.60714V76.3571ZM1.60714 74.75H3.21429V76.3571H1.60714V74.75ZM1.60714 73.1429H3.21429V74.75H1.60714V73.1429ZM0 73.1429H1.60714V74.75H0V73.1429ZM0 74.75H1.60714V76.3571H0V74.75ZM0 76.3571H1.60714V77.9643H0V76.3571ZM0 77.9643H1.60714V79.5714H0V77.9643ZM1.60714 77.9643H3.21429V79.5714H1.60714V77.9643ZM3.21429 77.9643H4.82143V79.5714H3.21429V77.9643ZM4.82143 77.9643H6.42857V79.5714H4.82143V77.9643ZM6.42857 77.9643H8.03571V79.5714H6.42857V77.9643ZM8.03571 77.9643H9.64286V79.5714H8.03571V77.9643ZM9.64286 77.9643H11.25V79.5714H9.64286V77.9643ZM9.64286 79.5714H11.25V81.1786H9.64286V79.5714ZM8.03571 79.5714H9.64286V81.1786H8.03571V79.5714ZM8.03571 82.7857H9.64286V84.3929H8.03571V82.7857ZM9.64286 82.7857H11.25V84.3929H9.64286V82.7857ZM9.64286 81.1786H11.25V82.7857H9.64286V81.1786ZM8.03571 81.1786H9.64286V82.7857H8.03571V81.1786ZM8.03571 84.3929H9.64286V86H8.03571V84.3929ZM6.42857 84.3929H8.03571V86H6.42857V84.3929ZM4.82143 84.3929H6.42857V86H4.82143V84.3929ZM3.21429 84.3929H4.82143V86H3.21429V84.3929ZM1.60714 84.3929H3.21429V86H1.60714V84.3929ZM0 84.3929H1.60714V86H0V84.3929ZM0 82.7857H1.60714V84.3929H0V82.7857ZM0 81.1786H1.60714V82.7857H0V81.1786ZM0 79.5714H1.60714V81.1786H0V79.5714ZM1.60714 79.5714H3.21429V81.1786H1.60714V79.5714ZM1.60714 81.1786H3.21429V82.7857H1.60714V81.1786ZM1.60714 82.7857H3.21429V84.3929H1.60714V82.7857ZM3.21429 82.7857H4.82143V84.3929H3.21429V82.7857ZM4.82143 82.7857H6.42857V84.3929H4.82143V82.7857ZM6.42857 82.7857H8.03571V84.3929H6.42857V82.7857Z" fill="#FEBB0B"/>
<path d="M14.4685 71.5357H16.0756V73.1429H14.4685V71.5357ZM20.897 71.5357H22.5042V73.1429H20.897V71.5357ZM20.897 73.1429H22.5042V74.75H20.897V73.1429ZM22.5042 71.5357H24.1113V73.1429H22.5042V71.5357ZM22.5042 73.1429H24.1113V74.75H22.5042V73.1429ZM22.5042 74.75H24.1113V76.3571H22.5042V74.75ZM22.5042 76.3571H24.1113V77.9643H22.5042V76.3571ZM22.5042 77.9643H24.1113V79.5714H22.5042V77.9643ZM22.5042 79.5714H24.1113V81.1786H22.5042V79.5714ZM22.5042 81.1786H24.1113V82.7857H22.5042V81.1786ZM22.5042 82.7857H24.1113V84.3929H22.5042V82.7857ZM20.897 82.7857H22.5042V84.3929H20.897V82.7857ZM20.897 81.1786H22.5042V82.7857H20.897V81.1786ZM20.897 79.5714H22.5042V81.1786H20.897V79.5714ZM20.897 77.9643H22.5042V79.5714H20.897V77.9643ZM20.897 76.3571H22.5042V77.9643H20.897V76.3571ZM20.897 74.75H22.5042V76.3571H20.897V74.75ZM19.2899 81.1786H20.897V82.7857H19.2899V81.1786ZM19.2899 82.7857H20.897V84.3929H19.2899V82.7857ZM20.897 84.3929H22.5042V86H20.897V84.3929ZM19.2899 84.3929H20.897V86H19.2899V84.3929ZM17.6828 84.3929H19.2899V86H17.6828V84.3929ZM17.6828 82.7857H19.2899V84.3929H17.6828V82.7857ZM16.0756 84.3929H17.6828V86H16.0756V84.3929ZM14.4685 84.3929H16.0756V86H14.4685V84.3929ZM14.4685 82.7857H16.0756V84.3929H14.4685V82.7857ZM16.0756 82.7857H17.6828V84.3929H16.0756V82.7857ZM16.0756 81.1786H17.6828V82.7857H16.0756V81.1786ZM14.4685 81.1786H16.0756V82.7857H14.4685V81.1786ZM12.8613 82.7857H14.4685V84.3929H12.8613V82.7857ZM12.8613 81.1786H14.4685V82.7857H12.8613V81.1786ZM12.8613 79.5714H14.4685V81.1786H12.8613V79.5714ZM12.8613 77.9643H14.4685V79.5714H12.8613V77.9643ZM12.8613 76.3571H14.4685V77.9643H12.8613V76.3571ZM12.8613 74.75H14.4685V76.3571H12.8613V74.75ZM12.8613 73.1429H14.4685V74.75H12.8613V73.1429ZM14.4685 73.1429H16.0756V74.75H14.4685V73.1429ZM12.8613 71.5357H14.4685V73.1429H12.8613V71.5357ZM14.4685 74.75H16.0756V76.3571H14.4685V74.75ZM14.4685 76.3571H16.0756V77.9643H14.4685V76.3571ZM14.4685 77.9643H16.0756V79.5714H14.4685V77.9643ZM14.4685 79.5714H16.0756V81.1786H14.4685V79.5714ZM12.8613 69.9286H14.4685V71.5357H12.8613V69.9286ZM14.4685 69.9286H16.0756V71.5357H14.4685V69.9286ZM20.897 69.9286H22.5042V71.5357H20.897V69.9286ZM22.5042 69.9286H24.1113V71.5357H22.5042V69.9286ZM115.744 69.9286H117.351V71.5357H115.744V69.9286ZM114.136 69.9286H115.744V71.5357H114.136V69.9286ZM114.136 71.5357H115.744V73.1429H114.136V71.5357ZM115.744 71.5357H117.351V73.1429H115.744V71.5357ZM117.351 71.5357H118.958V73.1429H117.351V71.5357ZM117.351 69.9286H118.958V71.5357H117.351V69.9286ZM118.958 69.9286H120.565V71.5357H118.958V69.9286ZM120.565 69.9286H122.172V71.5357H120.565V69.9286ZM120.565 71.5357H122.172V73.1429H120.565V71.5357ZM118.958 71.5357H120.565V73.1429H118.958V71.5357ZM120.565 73.1429H122.172V74.75H120.565V73.1429ZM122.172 71.5357H123.779V73.1429H122.172V71.5357ZM122.172 73.1429H123.779V74.75H122.172V73.1429ZM122.172 81.1786H123.779V82.7857H122.172V81.1786ZM122.172 82.7857H123.779V84.3929H122.172V82.7857ZM120.565 82.7857H122.172V84.3929H120.565V82.7857ZM120.565 81.1786H122.172V82.7857H120.565V81.1786ZM118.958 82.7857H120.565V84.3929H118.958V82.7857ZM120.565 84.3929H122.172V86H120.565V84.3929ZM118.958 84.3929H120.565V86H118.958V84.3929ZM117.351 84.3929H118.958V86H117.351V84.3929ZM117.351 82.7857H118.958V84.3929H117.351V82.7857ZM115.744 84.3929H117.351V86H115.744V84.3929ZM114.136 84.3929H115.744V86H114.136V84.3929ZM114.136 82.7857H115.744V84.3929H114.136V82.7857ZM115.744 82.7857H117.351V84.3929H115.744V82.7857ZM115.744 81.1786H117.351V82.7857H115.744V81.1786ZM114.136 81.1786H115.744V82.7857H114.136V81.1786ZM112.529 82.7857H114.136V84.3929H112.529V82.7857ZM112.529 81.1786H114.136V82.7857H112.529V81.1786ZM112.529 79.5714H114.136V81.1786H112.529V79.5714ZM112.529 77.9643H114.136V79.5714H112.529V77.9643ZM112.529 76.3571H114.136V77.9643H112.529V76.3571ZM112.529 74.75H114.136V76.3571H112.529V74.75ZM112.529 73.1429H114.136V74.75H112.529V73.1429ZM114.136 73.1429H115.744V74.75H114.136V73.1429ZM112.529 71.5357H114.136V73.1429H112.529V71.5357ZM115.744 73.1429H117.351V74.75H115.744V73.1429ZM114.136 74.75H115.744V76.3571H114.136V74.75ZM114.136 76.3571H115.744V77.9643H114.136V76.3571ZM114.136 77.9643H115.744V79.5714H114.136V77.9643ZM114.136 79.5714H115.744V81.1786H114.136V79.5714Z" fill="#066FBF"/>
<path d="M28.9369 69.9286H30.5441V71.5357H28.9369V69.9286ZM27.3298 69.9286H28.9369V71.5357H27.3298V69.9286ZM27.3298 71.5357H28.9369V73.1429H27.3298V71.5357ZM28.9369 71.5357H30.5441V73.1429H28.9369V71.5357ZM30.5441 71.5357H32.1512V73.1429H30.5441V71.5357ZM30.5441 69.9286H32.1512V71.5357H30.5441V69.9286ZM32.1512 69.9286H33.7584V71.5357H32.1512V69.9286ZM33.7584 69.9286H35.3655V71.5357H33.7584V69.9286ZM33.7584 71.5357H35.3655V73.1429H33.7584V71.5357ZM32.1512 71.5357H33.7584V73.1429H32.1512V71.5357ZM32.1512 73.1429H33.7584V74.75H32.1512V73.1429ZM33.7584 73.1429H35.3655V74.75H33.7584V73.1429ZM35.3655 71.5357H36.9727V73.1429H35.3655V71.5357ZM35.3655 73.1429H36.9727V74.75H35.3655V73.1429ZM35.3655 74.75H36.9727V76.3571H35.3655V74.75ZM35.3655 76.3571H36.9727V77.9643H35.3655V76.3571ZM35.3655 77.9643H36.9727V79.5714H35.3655V77.9643ZM35.3655 79.5714H36.9727V81.1786H35.3655V79.5714ZM35.3655 81.1786H36.9727V82.7857H35.3655V81.1786ZM35.3655 82.7857H36.9727V84.3929H35.3655V82.7857ZM33.7584 82.7857H35.3655V84.3929H33.7584V82.7857ZM33.7584 81.1786H35.3655V82.7857H33.7584V81.1786ZM33.7584 79.5714H35.3655V81.1786H33.7584V79.5714ZM33.7584 77.9643H35.3655V79.5714H33.7584V77.9643ZM33.7584 76.3571H35.3655V77.9643H33.7584V76.3571ZM33.7584 74.75H35.3655V76.3571H33.7584V74.75ZM32.1512 81.1786H33.7584V82.7857H32.1512V81.1786ZM32.1512 82.7857H33.7584V84.3929H32.1512V82.7857ZM33.7584 84.3929H35.3655V86H33.7584V84.3929ZM32.1512 84.3929H33.7584V86H32.1512V84.3929ZM30.5441 84.3929H32.1512V86H30.5441V84.3929ZM30.5441 82.7857H32.1512V84.3929H30.5441V82.7857ZM28.9369 84.3929H30.5441V86H28.9369V84.3929ZM27.3298 84.3929H28.9369V86H27.3298V84.3929ZM27.3298 82.7857H28.9369V84.3929H27.3298V82.7857ZM28.9369 82.7857H30.5441V84.3929H28.9369V82.7857ZM27.3298 81.1786H28.9369V82.7857H27.3298V81.1786ZM25.7227 82.7857H27.3298V84.3929H25.7227V82.7857ZM25.7227 81.1786H27.3298V82.7857H25.7227V81.1786ZM25.7227 79.5714H27.3298V81.1786H25.7227V79.5714ZM25.7227 77.9643H27.3298V79.5714H25.7227V77.9643ZM25.7227 76.3571H27.3298V77.9643H25.7227V76.3571ZM25.7227 74.75H27.3298V76.3571H25.7227V74.75ZM25.7227 73.1429H27.3298V74.75H25.7227V73.1429ZM27.3298 73.1429H28.9369V74.75H27.3298V73.1429ZM25.7227 71.5357H27.3298V73.1429H25.7227V71.5357ZM27.3298 74.75H28.9369V76.3571H27.3298V74.75ZM27.3298 76.3571H28.9369V77.9643H27.3298V76.3571ZM27.3298 77.9643H28.9369V79.5714H27.3298V77.9643ZM27.3298 79.5714H28.9369V81.1786H27.3298V79.5714ZM25.7227 84.3929H27.3298V86H25.7227V84.3929ZM25.7227 69.9286H27.3298V71.5357H25.7227V69.9286ZM90.0293 69.9286H91.6364V71.5357H90.0293V69.9286ZM91.6364 69.9286H93.2436V71.5357H91.6364V69.9286ZM91.6364 71.5357H93.2436V73.1429H91.6364V71.5357ZM91.6364 73.1429H93.2436V74.75H91.6364V73.1429ZM91.6364 74.75H93.2436V76.3571H91.6364V74.75ZM90.0293 74.75H91.6364V76.3571H90.0293V74.75ZM90.0293 73.1429H91.6364V74.75H90.0293V73.1429ZM90.0293 71.5357H91.6364V73.1429H90.0293V71.5357ZM90.0293 76.3571H91.6364V77.9643H90.0293V76.3571ZM90.0293 77.9643H91.6364V79.5714H90.0293V77.9643ZM90.0293 79.5714H91.6364V81.1786H90.0293V79.5714ZM91.6364 77.9643H93.2436V79.5714H91.6364V77.9643ZM91.6364 76.3571H93.2436V77.9643H91.6364V76.3571ZM91.6364 79.5714H93.2436V81.1786H91.6364V79.5714ZM91.6364 81.1786H93.2436V82.7857H91.6364V81.1786ZM90.0293 82.7857H91.6364V84.3929H90.0293V82.7857ZM90.0293 81.1786H91.6364V82.7857H90.0293V81.1786ZM90.0293 84.3929H91.6364V86H90.0293V84.3929ZM91.6364 84.3929H93.2436V86H91.6364V84.3929ZM91.6364 82.7857H93.2436V84.3929H91.6364V82.7857ZM93.2436 84.3929H94.8507V86H93.2436V84.3929ZM94.8507 84.3929H96.4579V86H94.8507V84.3929ZM96.4579 84.3929H98.065V86H96.4579V84.3929ZM96.4579 82.7857H98.065V84.3929H96.4579V82.7857ZM94.8507 82.7857H96.4579V84.3929H94.8507V82.7857ZM93.2436 82.7857H94.8507V84.3929H93.2436V82.7857ZM126.998 69.9286H128.605V71.5357H126.998V69.9286ZM125.391 69.9286H126.998V71.5357H125.391V69.9286ZM125.391 71.5357H126.998V73.1429H125.391V71.5357ZM125.391 73.1429H126.998V74.75H125.391V73.1429ZM125.391 74.75H126.998V76.3571H125.391V74.75ZM125.391 76.3571H126.998V77.9643H125.391V76.3571ZM125.391 77.9643H126.998V79.5714H125.391V77.9643ZM125.391 79.5714H126.998V81.1786H125.391V79.5714ZM125.391 81.1786H126.998V82.7857H125.391V81.1786ZM125.391 82.7857H126.998V84.3929H125.391V82.7857ZM125.391 84.3929H126.998V86H125.391V84.3929ZM126.998 84.3929H128.605V86H126.998V84.3929ZM126.998 82.7857H128.605V84.3929H126.998V82.7857ZM126.998 81.1786H128.605V82.7857H126.998V81.1786ZM126.998 79.5714H128.605V81.1786H126.998V79.5714ZM126.998 77.9643H128.605V79.5714H126.998V77.9643ZM126.998 76.3571H128.605V77.9643H126.998V76.3571ZM126.998 74.75H128.605V76.3571H126.998V74.75ZM126.998 73.1429H128.605V74.75H126.998V73.1429ZM126.998 71.5357H128.605V73.1429H126.998V71.5357ZM128.605 77.9643H130.212V79.5714H128.605V77.9643ZM130.212 77.9643H131.819V79.5714H130.212V77.9643ZM130.212 76.3571H131.819V77.9643H130.212V76.3571ZM128.605 76.3571H130.212V77.9643H128.605V76.3571ZM130.212 74.75H131.819V76.3571H130.212V74.75ZM131.819 74.75H133.426V76.3571H131.819V74.75ZM131.819 73.1429H133.426V74.75H131.819V73.1429ZM131.819 71.5357H133.426V73.1429H131.819V71.5357ZM131.819 69.9286H133.426V71.5357H131.819V69.9286ZM133.426 69.9286H135.033V71.5357H133.426V69.9286ZM133.426 71.5357H135.033V73.1429H133.426V71.5357ZM133.426 73.1429H135.033V74.75H133.426V73.1429ZM130.212 79.5714H131.819V81.1786H130.212V79.5714ZM131.819 79.5714H133.426V81.1786H131.819V79.5714ZM131.819 81.1786H133.426V82.7857H131.819V81.1786ZM131.819 82.7857H133.426V84.3929H131.819V82.7857ZM131.819 84.3929H133.426V86H131.819V84.3929ZM133.426 84.3929H135.033V86H133.426V84.3929ZM133.426 82.7857H135.033V84.3929H133.426V82.7857ZM133.426 81.1786H135.033V82.7857H133.426V81.1786ZM133.426 79.5714H135.033V81.1786H133.426V79.5714ZM131.819 77.9643H133.426V79.5714H131.819V77.9643Z" fill="#F14C14"/>
<path d="M41.7983 69.9286H43.4054V71.5357H41.7983V69.9286ZM40.1911 69.9286H41.7983V71.5357H40.1911V69.9286ZM40.1911 71.5357H41.7983V73.1429H40.1911V71.5357ZM41.7983 71.5357H43.4054V73.1429H41.7983V71.5357ZM43.4054 71.5357H45.0126V73.1429H43.4054V71.5357ZM43.4054 69.9286H45.0126V71.5357H43.4054V69.9286ZM45.0126 69.9286H46.6197V71.5357H45.0126V69.9286ZM46.6197 69.9286H48.2268V71.5357H46.6197V69.9286ZM46.6197 71.5357H48.2268V73.1429H46.6197V71.5357ZM45.0126 71.5357H46.6197V73.1429H45.0126V71.5357ZM45.0126 73.1429H46.6197V74.75H45.0126V73.1429ZM46.6197 73.1429H48.2268V74.75H46.6197V73.1429ZM48.2268 71.5357H49.834V73.1429H48.2268V71.5357ZM48.2268 73.1429H49.834V74.75H48.2268V73.1429ZM48.2268 74.75H49.834V76.3571H48.2268V74.75ZM48.2268 76.3571H49.834V77.9643H48.2268V76.3571ZM48.2268 77.9643H49.834V79.5714H48.2268V77.9643ZM48.2268 79.5714H49.834V81.1786H48.2268V79.5714ZM48.2268 81.1786H49.834V82.7857H48.2268V81.1786ZM48.2268 82.7857H49.834V84.3929H48.2268V82.7857ZM46.6197 82.7857H48.2268V84.3929H46.6197V82.7857ZM46.6197 81.1786H48.2268V82.7857H46.6197V81.1786ZM46.6197 79.5714H48.2268V81.1786H46.6197V79.5714ZM46.6197 77.9643H48.2268V79.5714H46.6197V77.9643ZM46.6197 76.3571H48.2268V77.9643H46.6197V76.3571ZM46.6197 74.75H48.2268V76.3571H46.6197V74.75ZM45.0126 81.1786H46.6197V82.7857H45.0126V81.1786ZM45.0126 82.7857H46.6197V84.3929H45.0126V82.7857ZM46.6197 84.3929H48.2268V86H46.6197V84.3929ZM45.0126 84.3929H46.6197V86H45.0126V84.3929ZM43.4054 84.3929H45.0126V86H43.4054V84.3929ZM43.4054 82.7857H45.0126V84.3929H43.4054V82.7857ZM41.7983 84.3929H43.4054V86H41.7983V84.3929ZM40.1911 84.3929H41.7983V86H40.1911V84.3929ZM40.1911 82.7857H41.7983V84.3929H40.1911V82.7857ZM41.7983 82.7857H43.4054V84.3929H41.7983V82.7857ZM40.1911 81.1786H41.7983V82.7857H40.1911V81.1786ZM38.584 82.7857H40.1911V84.3929H38.584V82.7857ZM38.584 81.1786H40.1911V82.7857H38.584V81.1786ZM38.584 79.5714H40.1911V81.1786H38.584V79.5714ZM38.584 77.9643H40.1911V79.5714H38.584V77.9643ZM38.584 76.3571H40.1911V77.9643H38.584V76.3571ZM38.584 74.75H40.1911V76.3571H38.584V74.75ZM38.584 73.1429H40.1911V74.75H38.584V73.1429ZM40.1911 73.1429H41.7983V74.75H40.1911V73.1429ZM38.584 71.5357H40.1911V73.1429H38.584V71.5357ZM40.1911 74.75H41.7983V76.3571H40.1911V74.75ZM40.1911 76.3571H41.7983V77.9643H40.1911V76.3571ZM40.1911 77.9643H41.7983V79.5714H40.1911V77.9643ZM40.1911 79.5714H41.7983V81.1786H40.1911V79.5714ZM38.584 84.3929H40.1911V86H38.584V84.3929ZM38.584 69.9286H40.1911V71.5357H38.584V69.9286ZM65.918 76.3571H67.5251V77.9643H65.918V76.3571ZM67.5251 76.3571H69.1323V77.9643H67.5251V76.3571ZM69.1323 76.3571H70.7394V77.9643H69.1323V76.3571ZM70.7394 76.3571H72.3465V77.9643H70.7394V76.3571ZM72.3465 76.3571H73.9537V77.9643H72.3465V76.3571ZM73.9537 76.3571H75.5608V77.9643H73.9537V76.3571ZM73.9537 77.9643H75.5608V79.5714H73.9537V77.9643ZM72.3465 77.9643H73.9537V79.5714H72.3465V77.9643ZM70.7394 77.9643H72.3465V79.5714H70.7394V77.9643ZM69.1323 77.9643H70.7394V79.5714H69.1323V77.9643ZM67.5251 77.9643H69.1323V79.5714H67.5251V77.9643ZM65.918 77.9643H67.5251V79.5714H65.918V77.9643ZM102.882 69.9286H104.489V71.5357H102.882V69.9286ZM101.275 69.9286H102.882V71.5357H101.275V69.9286ZM101.275 71.5357H102.882V73.1429H101.275V71.5357ZM102.882 71.5357H104.489V73.1429H102.882V71.5357ZM104.489 71.5357H106.097V73.1429H104.489V71.5357ZM104.489 69.9286H106.097V71.5357H104.489V69.9286ZM106.097 69.9286H107.704V71.5357H106.097V69.9286ZM107.704 69.9286H109.311V71.5357H107.704V69.9286ZM107.704 71.5357H109.311V73.1429H107.704V71.5357ZM106.097 71.5357H107.704V73.1429H106.097V71.5357ZM106.097 73.1429H107.704V74.75H106.097V73.1429ZM107.704 73.1429H109.311V74.75H107.704V73.1429ZM109.311 71.5357H110.918V73.1429H109.311V71.5357ZM109.311 73.1429H110.918V74.75H109.311V73.1429ZM109.311 74.75H110.918V76.3571H109.311V74.75ZM109.311 76.3571H110.918V77.9643H109.311V76.3571ZM109.311 77.9643H110.918V79.5714H109.311V77.9643ZM109.311 79.5714H110.918V81.1786H109.311V79.5714ZM109.311 81.1786H110.918V82.7857H109.311V81.1786ZM109.311 82.7857H110.918V84.3929H109.311V82.7857ZM107.704 82.7857H109.311V84.3929H107.704V82.7857ZM107.704 81.1786H109.311V82.7857H107.704V81.1786ZM107.704 79.5714H109.311V81.1786H107.704V79.5714ZM107.704 77.9643H109.311V79.5714H107.704V77.9643ZM107.704 76.3571H109.311V77.9643H107.704V76.3571ZM107.704 74.75H109.311V76.3571H107.704V74.75ZM106.097 81.1786H107.704V82.7857H106.097V81.1786ZM106.097 82.7857H107.704V84.3929H106.097V82.7857ZM107.704 84.3929H109.311V86H107.704V84.3929ZM106.097 84.3929H107.704V86H106.097V84.3929ZM104.489 84.3929H106.097V86H104.489V84.3929ZM104.489 82.7857H106.097V84.3929H104.489V82.7857ZM102.882 84.3929H104.489V86H102.882V84.3929ZM101.275 84.3929H102.882V86H101.275V84.3929ZM101.275 82.7857H102.882V84.3929H101.275V82.7857ZM102.882 82.7857H104.489V84.3929H102.882V82.7857ZM102.882 81.1786H104.489V82.7857H102.882V81.1786ZM101.275 81.1786H102.882V82.7857H101.275V81.1786ZM99.668 82.7857H101.275V84.3929H99.668V82.7857ZM99.668 81.1786H101.275V82.7857H99.668V81.1786ZM99.668 79.5714H101.275V81.1786H99.668V79.5714ZM99.668 77.9643H101.275V79.5714H99.668V77.9643ZM99.668 76.3571H101.275V77.9643H99.668V76.3571ZM99.668 74.75H101.275V76.3571H99.668V74.75ZM99.668 73.1429H101.275V74.75H99.668V73.1429ZM101.275 73.1429H102.882V74.75H101.275V73.1429ZM99.668 71.5357H101.275V73.1429H99.668V71.5357ZM102.882 73.1429H104.489V74.75H102.882V73.1429ZM101.275 74.75H102.882V76.3571H101.275V74.75ZM101.275 76.3571H102.882V77.9643H101.275V76.3571ZM101.275 77.9643H102.882V79.5714H101.275V77.9643ZM101.275 79.5714H102.882V81.1786H101.275V79.5714Z" fill="#DD0252"/>
<path d="M51.4453 69.9286H53.0525V71.5357H51.4453V69.9286ZM53.0525 69.9286H54.6596V71.5357H53.0525V69.9286ZM53.0525 71.5357H54.6596V73.1429H53.0525V71.5357ZM53.0525 73.1429H54.6596V74.75H53.0525V73.1429ZM51.4453 73.1429H53.0525V74.75H51.4453V73.1429ZM51.4453 71.5357H53.0525V73.1429H51.4453V71.5357ZM51.4453 74.75H53.0525V76.3571H51.4453V74.75ZM51.4453 76.3571H53.0525V77.9643H51.4453V76.3571ZM53.0525 76.3571H54.6596V77.9643H53.0525V76.3571ZM53.0525 74.75H54.6596V76.3571H53.0525V74.75ZM53.0525 77.9643H54.6596V79.5714H53.0525V77.9643ZM54.6596 77.9643H56.2667V79.5714H54.6596V77.9643ZM54.6596 76.3571H56.2667V77.9643H54.6596V76.3571ZM54.6596 79.5714H56.2667V81.1786H54.6596V79.5714ZM56.2667 79.5714H57.8739V81.1786H56.2667V79.5714ZM56.2667 77.9643H57.8739V79.5714H56.2667V77.9643ZM57.8739 77.9643H59.481V79.5714H57.8739V77.9643ZM57.8739 79.5714H59.481V81.1786H57.8739V79.5714ZM59.481 79.5714H61.0882V81.1786H59.481V79.5714ZM59.481 77.9643H61.0882V79.5714H59.481V77.9643ZM59.481 76.3571H61.0882V77.9643H59.481V76.3571ZM61.0882 76.3571H62.6953V77.9643H61.0882V76.3571ZM61.0882 77.9643H62.6953V79.5714H61.0882V77.9643ZM61.0882 74.75H62.6953V76.3571H61.0882V74.75ZM61.0882 73.1429H62.6953V74.75H61.0882V73.1429ZM61.0882 71.5357H62.6953V73.1429H61.0882V71.5357ZM61.0882 69.9286H62.6953V71.5357H61.0882V69.9286ZM62.6953 69.9286H64.3025V71.5357H62.6953V69.9286ZM62.6953 71.5357H64.3025V73.1429H62.6953V71.5357ZM62.6953 73.1429H64.3025V74.75H62.6953V73.1429ZM62.6953 74.75H64.3025V76.3571H62.6953V74.75ZM62.6953 76.3571H64.3025V77.9643H62.6953V76.3571ZM56.2667 81.1786H57.8739V82.7857H56.2667V81.1786ZM56.2667 82.7857H57.8739V84.3929H56.2667V82.7857ZM56.2667 84.3929H57.8739V86H56.2667V84.3929ZM57.8739 84.3929H59.481V86H57.8739V84.3929ZM57.8739 82.7857H59.481V84.3929H57.8739V82.7857ZM57.8739 81.1786H59.481V82.7857H57.8739V81.1786Z" fill="#FE9609"/>
<path d="M77.168 69.9286H78.7751V71.5357H77.168V69.9286ZM78.7751 69.9286H80.3823V71.5357H78.7751V69.9286ZM80.3823 69.9286H81.9894V71.5357H80.3823V69.9286ZM81.9894 69.9286H83.5965V71.5357H81.9894V69.9286ZM83.5965 69.9286H85.2037V71.5357H83.5965V69.9286ZM85.2037 69.9286H86.8108V71.5357H85.2037V69.9286ZM85.2037 71.5357H86.8108V73.1429H85.2037V71.5357ZM83.5965 71.5357H85.2037V73.1429H83.5965V71.5357ZM81.9894 71.5357H83.5965V73.1429H81.9894V71.5357ZM80.3823 71.5357H81.9894V73.1429H80.3823V71.5357ZM78.7751 71.5357H80.3823V73.1429H78.7751V71.5357ZM77.168 71.5357H78.7751V73.1429H77.168V71.5357ZM86.8108 71.5357H88.418V73.1429H86.8108V71.5357ZM86.8108 73.1429H88.418V74.75H86.8108V73.1429ZM86.8108 74.75H88.418V76.3571H86.8108V74.75ZM85.2037 74.75H86.8108V76.3571H85.2037V74.75ZM85.2037 73.1429H86.8108V74.75H85.2037V73.1429ZM85.2037 76.3571H86.8108V77.9643H85.2037V76.3571ZM83.5965 76.3571H85.2037V77.9643H83.5965V76.3571ZM81.9894 76.3571H83.5965V77.9643H81.9894V76.3571ZM80.3823 76.3571H81.9894V77.9643H80.3823V76.3571ZM78.7751 76.3571H80.3823V77.9643H78.7751V76.3571ZM78.7751 74.75H80.3823V76.3571H78.7751V74.75ZM78.7751 73.1429H80.3823V74.75H78.7751V73.1429ZM77.168 73.1429H78.7751V74.75H77.168V73.1429ZM77.168 74.75H78.7751V76.3571H77.168V74.75ZM77.168 76.3571H78.7751V77.9643H77.168V76.3571ZM77.168 77.9643H78.7751V79.5714H77.168V77.9643ZM78.7751 77.9643H80.3823V79.5714H78.7751V77.9643ZM80.3823 77.9643H81.9894V79.5714H80.3823V77.9643ZM81.9894 77.9643H83.5965V79.5714H81.9894V77.9643ZM83.5965 77.9643H85.2037V79.5714H83.5965V77.9643ZM85.2037 77.9643H86.8108V79.5714H85.2037V77.9643ZM86.8108 77.9643H88.418V79.5714H86.8108V77.9643ZM86.8108 79.5714H88.418V81.1786H86.8108V79.5714ZM85.2037 79.5714H86.8108V81.1786H85.2037V79.5714ZM85.2037 82.7857H86.8108V84.3929H85.2037V82.7857ZM86.8108 82.7857H88.418V84.3929H86.8108V82.7857ZM86.8108 81.1786H88.418V82.7857H86.8108V81.1786ZM85.2037 81.1786H86.8108V82.7857H85.2037V81.1786ZM85.2037 84.3929H86.8108V86H85.2037V84.3929ZM83.5965 84.3929H85.2037V86H83.5965V84.3929ZM81.9894 84.3929H83.5965V86H81.9894V84.3929ZM80.3823 84.3929H81.9894V86H80.3823V84.3929ZM78.7751 84.3929H80.3823V86H78.7751V84.3929ZM77.168 84.3929H78.7751V86H77.168V84.3929ZM77.168 82.7857H78.7751V84.3929H77.168V82.7857ZM77.168 81.1786H78.7751V82.7857H77.168V81.1786ZM77.168 79.5714H78.7751V81.1786H77.168V79.5714ZM78.7751 79.5714H80.3823V81.1786H78.7751V79.5714ZM78.7751 81.1786H80.3823V82.7857H78.7751V81.1786ZM78.7751 82.7857H80.3823V84.3929H78.7751V82.7857ZM80.3823 82.7857H81.9894V84.3929H80.3823V82.7857ZM81.9894 82.7857H83.5965V84.3929H81.9894V82.7857ZM83.5965 82.7857H85.2037V84.3929H83.5965V82.7857ZM146.283 73.1429H147.891V74.75H146.283V73.1429ZM144.676 73.1429H146.283V74.75H144.676V73.1429ZM144.676 71.5357H146.283V73.1429H144.676V71.5357ZM146.283 71.5357H147.891V73.1429H146.283V71.5357ZM144.676 69.9286H146.283V71.5357H144.676V69.9286ZM143.069 69.9286H144.676V71.5357H143.069V69.9286ZM143.069 71.5357H144.676V73.1429H143.069V71.5357ZM141.462 71.5357H143.069V73.1429H141.462V71.5357ZM139.855 71.5357H141.462V73.1429H139.855V71.5357ZM139.855 69.9286H141.462V71.5357H139.855V69.9286ZM138.248 69.9286H139.855V71.5357H138.248V69.9286ZM141.462 69.9286H143.069V71.5357H141.462V69.9286ZM138.248 71.5357H139.855V73.1429H138.248V71.5357ZM136.641 71.5357H138.248V73.1429H136.641V71.5357ZM136.641 73.1429H138.248V74.75H136.641V73.1429ZM138.248 73.1429H139.855V74.75H138.248V73.1429ZM138.248 74.75H139.855V76.3571H138.248V74.75ZM138.248 76.3571H139.855V77.9643H138.248V76.3571ZM136.641 76.3571H138.248V77.9643H136.641V76.3571ZM136.641 74.75H138.248V76.3571H136.641V74.75ZM138.248 77.9643H139.855V79.5714H138.248V77.9643ZM139.855 77.9643H141.462V79.5714H139.855V77.9643ZM139.855 76.3571H141.462V77.9643H139.855V76.3571ZM141.462 76.3571H143.069V77.9643H141.462V76.3571ZM143.069 76.3571H144.676V77.9643H143.069V76.3571ZM144.676 76.3571H146.283V77.9643H144.676V76.3571ZM144.676 77.9643H146.283V79.5714H144.676V77.9643ZM143.069 77.9643H144.676V79.5714H143.069V77.9643ZM141.462 77.9643H143.069V79.5714H141.462V77.9643ZM146.283 77.9643H147.891V79.5714H146.283V77.9643ZM146.283 79.5714H147.891V81.1786H146.283V79.5714ZM144.676 79.5714H146.283V81.1786H144.676V79.5714ZM143.069 82.7857H144.676V84.3929H143.069V82.7857ZM144.676 82.7857H146.283V84.3929H144.676V82.7857ZM144.676 81.1786H146.283V82.7857H144.676V81.1786ZM146.283 81.1786H147.891V82.7857H146.283V81.1786ZM146.283 82.7857H147.891V84.3929H146.283V82.7857ZM144.676 84.3929H146.283V86H144.676V84.3929ZM143.069 84.3929H144.676V86H143.069V84.3929ZM141.462 84.3929H143.069V86H141.462V84.3929ZM139.855 84.3929H141.462V86H139.855V84.3929ZM138.248 84.3929H139.855V86H138.248V84.3929ZM138.248 82.7857H139.855V84.3929H138.248V82.7857ZM139.855 82.7857H141.462V84.3929H139.855V82.7857ZM141.462 82.7857H143.069V84.3929H141.462V82.7857ZM136.641 82.7857H138.248V84.3929H136.641V82.7857ZM136.641 81.1786H138.248V82.7857H136.641V81.1786ZM138.248 81.1786H139.855V82.7857H138.248V81.1786Z" fill="#35E1F7"/>
<defs>
<linearGradient id="paint0_linear_0_1" x1="105.031" y1="37.3637" x2="100.901" y2="26.5408" gradientUnits="userSpaceOnUse">
<stop stop-color="#E35901"/>
<stop offset="1" stop-color="#CA3F16"/>
</linearGradient>
</defs>
</svg>
